<svg 
          width="23" 
          height="23" fill="none" 
          xmlns="http://www.w3.org/2000/svg">
          <path d="M 20.7 2.090909090909091 L 19.549999999999997 2.090909090909091 L 19.549999999999997 0 L 17.25 0 L 17.25 2.090909090909091 L 5.75 2.090909090909091 L 5.75 0 L 3.4499999999999997 0 L 3.4499999999999997 2.090909090909091 L 2.3 2.090909090909091 C 1.0349999725818633 2.090909090909091 0 3.0318181568926033 0 4.181818181818182 L 0 20.909090909090907 C 0 22.059090934016485 1.0349999725818633 23 2.3 23 L 20.7 23 C 21.965000027418135 23 23 22.059090934016485 23 20.909090909090907 L 23 4.181818181818182 C 23 3.0318181568926033 21.965000027418135 2.090909090909091 20.7 2.090909090909091 Z M 20.7 20.909090909090907 L 2.3 20.909090909090907 L 2.3 7.318181818181818 L 20.7 7.318181818181818 L 20.7 20.909090909090907 Z" fill="rgb(217.0000022649765,217.0000022649765,217.0000022649765)"/>
        </svg>