<svg 
          width="18" 
          height="18" fill="none" 
          xmlns="http://www.w3.org/2000/svg">
          <path d="M 16.2 1.6363636363636365 L 15.3 1.6363636363636365 L 15.3 0 L 13.5 0 L 13.5 1.6363636363636365 L 4.5 1.6363636363636365 L 4.5 0 L 2.7 0 L 2.7 1.6363636363636365 L 1.8 1.6363636363636365 C 0.8099999785423279 1.6363636363636365 0 2.3727272532202983 0 3.272727272727273 L 0 16.363636363636363 C 0 17.26363638314334 0.8099999785423279 18 1.8 18 L 16.2 18 C 17.19000002145767 18 18 17.26363638314334 18 16.363636363636363 L 18 3.272727272727273 C 18 2.3727272532202983 17.19000002145767 1.6363636363636365 16.2 1.6363636363636365 Z M 16.2 16.363636363636363 L 1.8 16.363636363636363 L 1.8 5.7272727272727275 L 16.2 5.7272727272727275 L 16.2 16.363636363636363 Z" fill="rgb(217.0000022649765,217.0000022649765,217.0000022649765)"/>
        </svg>