<svg 
          width="23" 
          height="23" fill="none" 
          xmlns="http://www.w3.org/2000/svg">
          <path d="M 16.43796476628654 14.465408994332154 L 15.399085443221917 14.465408994332154 L 15.03087538360991 14.110348353404117 C 16.319611846369117 12.611205985530543 17.095483356938 10.664951559178464 17.095483356938 8.547741678469 C 17.095483356938 3.8267583104620533 13.268725046475947 0 8.547741678469 0 C 3.8267583104620533 0 0 3.8267583104620533 0 8.547741678469 C 0 13.268725046475947 3.8267583104620533 17.095483356938 8.547741678469 17.095483356938 C 10.664951559178464 17.095483356938 12.611205985530543 16.319611846369117 14.110348353404117 15.03087538360991 L 14.465408994332154 15.399085443221917 L 14.465408994332154 16.43796476628654 L 21.04059490084677 23 L 23 21.04059490084677 L 16.43796476628654 14.465408994332154 Z M 8.547741678469 14.465408994332154 C 5.273299084483551 14.465408994332154 2.6300743626058463 11.82218427245445 2.6300743626058463 8.547741678469 C 2.6300743626058463 5.273299084483551 5.273299084483551 2.6300743626058463 8.547741678469 2.6300743626058463 C 11.82218427245445 2.6300743626058463 14.465408994332154 5.273299084483551 14.465408994332154 8.547741678469 C 14.465408994332154 11.82218427245445 11.82218427245445 14.465408994332154 8.547741678469 14.465408994332154 Z" fill="rgb(217.0000022649765,217.0000022649765,217.0000022649765)"/>
        </svg>